<svg xmlns="http://www.w3.org/2000/svg"
     viewBox="0 0 1024 1024"
     width="1365.333"
     height="1365.333"
     preserveAspectRatio="xMidYMid meet"
     role="img" aria-labelledby="svgTitle">
  <title id="svgTitle">SVG graphic</title>
  <g transform="translate(0,1024) scale(0.1,-0.1)" fill="#000000" stroke="none">
    <path d="M4285 7989c-468-20-996-59-1083-81-117-28-243-120-295-215-42-78-274-715-436-1198-37-110-76-217-86-238-12-26-52-65-127-124-117-91-196-184-242-283-30-65-31-78-10-109 25-34 72-50 202-66 400-50 1058-65 2922-65s2522 15 2922 65c130 16 177 32 202 66 21 31 20 44-10 109-46 99-125 192-242 283-75 59-115 98-127 124-10 21-49 128-86 238-162 483-394 1120-436 1198-52 95-178 187-295 215-92 23-607 60-1123 82-277 11-1369 11-1650-1zm2465-317 285-7 52-29c29-16 59-39 67-51s56-134 106-271 116-314 145-394c30-80 88-239 131-354l77-210-23-18c-30-24-163-24-680 2-719 35-1068 44-1780 44s-1061-9-1780-44c-517-26-650-26-680-2l-23 18 77 210c43 115 101 274 131 354 29 80 95 257 145 394s98 259 106 271 38 35 67 51l52 28 365 8c201 4 403 9 450 11 139 6 2401-3 2710-11z"/>
    <path d="M1671 6802c-61-33-71-66-71-237s10-204 71-237c30-16 61-18 289-18 297 0 303 2 345 93 22 47 25 65 25 182 0 149-12 185-71 217-30 16-61 18-294 18s-264-2-294-18z"/>
    <path d="M8001 6802c-59-32-71-68-71-217 0-117 3-135 25-182 42-91 48-93 345-93 228 0 259 2 289 18 61 33 71 66 71 237s-10 204-71 237c-30 16-61 18-294 18s-264-2-294-18z"/>
    <path d="M1845 5452c-54-25-108-88-133-153-52-141-55-610-6-1184 31-369 51-443 141-525 56-52 90-65 197-81 105-14 496-31 657-27 150 3 158 4 193 29 33 23 87 86 332 381 75 91 112 120 177 142 43 14 213 16 1727 16s1684-2 1727-16c65-22 102-51 177-142 245-295 299-358 332-381 35-25 43-26 193-29 161-4 552 13 657 27 107 16 141 29 197 81 90 82 110 156 141 525 49 575 46 1043-6 1184-37 97-138 179-209 169-20-2-24-8-22-33 1-16 3-109 4-205 5-405-64-454-706-500-82-6-256-14-387-19s-245-14-256-20-42-36-69-68c-73-86-112-119-183-155l-65-33H3605l-65 33c-71 36-110 69-183 155-27 32-58 62-69 68s-125 15-256 20c-420 15-734 44-856 78-130 36-187 89-222 207-14 48-17 93-15 234 1 96 3 189 4 205 2 27-1 30-28 33-16 1-48-6-70-16zm904-1176c38-36 55-85 49-140-5-39-127-336-151-364-6-8-28-22-48-33-33-17-60-19-211-19-154 0-177 2-205 20-58 35-63 58-63 270 0 214 7 246 62 280 31 19 46 20 285 18l252-3 30-29zm5329 14c55-34 62-66 62-280 0-212-5-235-63-270-28-18-51-20-205-20-151 0-178 2-211 19-20 11-42 25-48 33-19 23-144 318-150 353-12 71 26 153 81 175 12 5 129 9 261 9 224 1 242 0 273-19z"/>
    <path d="M2120 5455c-19-23-28-310-11-372 14-51 74-108 130-123 119-32 951-94 972-73 15 15-65 501-84 521-12 11-67 16-253 23-242 9-527 24-664 35-65 6-78 4-90-11z"/>
    <path d="M8029 5466c-5-5-370-25-653-35-177-7-231-12-243-23-19-20-99-506-84-521 21-21 853 41 972 73 56 15 116 72 130 123 16 60 8 349-10 370-9 12-29 17-61 17-25 0-49-2-51-4z"/>
    <path d="M3410 5275c0-3 7-35 16-70l16-65h3376l16 65c9 35 16 67 16 70s-774 5-1720 5-1720-2-1720-5z"/>
    <path d="M3520 4862c0-15 56-88 85-110l28-22h2994l28 22c29 22 85 95 85 110 0 4-724 8-1610 8-885 0-1610-4-1610-8z"/>
    <path d="M3239 3467c-36-24-220-257-212-269 2-5 949-8 2103-8s2101 3 2103 8c8 12-176 245-212 269l-34 23H3273l-34-23z"/>
    <path d="M1710 2830c0-640-3-607 64-678 59-63 49-62 461-62s402-1 461 62c66 69 64 56 64 502 0 390-1 406-19 416-12 6-130 10-313 10-164 0-313 5-338 11-58 13-147 58-200 100-23 19-71 76-107 127-35 50-66 92-69 92-2 0-4-261-4-580z"/>
    <path d="M8479 3320c-37-52-86-110-109-129-53-42-142-87-200-100-25-6-174-11-338-11-183 0-301-4-313-10-18-10-19-26-19-416 0-446-2-433 64-502 59-63 49-62 461-62s402-1 461 62c68 71 64 37 62 680l-3 583-66-95z"/>
  </g>
</svg>