<svg xmlns="http://www.w3.org/2000/svg"
     viewBox="0 0 1024 1024"
     width="1365.333"
     height="1365.333"
     preserveAspectRatio="xMidYMid meet"
     role="img" aria-labelledby="svgTitle">
  <title id="svgTitle">SVG graphic</title>
  <g transform="translate(0,1024) scale(0.1,-0.1)" fill="#000000" stroke="none">
    <path d="M4520 8484c-746-19-1506-85-1662-144-154-58-262-167-347-352-58-125-253-620-396-1003-69-187-147-395-172-462-26-70-51-123-59-123-22 0-32 59-37 211-3 81-10 156-16 168-25 46-54 51-299 51-262 0-305-8-365-66-54-53-71-118-72-280 0-128 0-131 29-168 36-48 77-73 141-86 81-17 436-60 493-60 28 0 52-3 52-6 0-4-30-93-66-198-168-491-226-762-266-1241-19-236-16-928 5-1162 30-325 70-541 123-662 57-127 160-221 290-261 108-33 367-65 679-85 732-46 1232-57 2555-57s1823 11 2555 57c312 20 571 52 679 85 130 40 233 134 290 261 53 121 93 337 123 662 21 234 24 926 5 1162-40 479-98 750-266 1241-36 105-66 194-66 198 0 3 24 6 53 6 56 0 411 43 492 60 64 13 105 38 141 86 29 37 29 40 29 168-1 162-18 227-72 280-60 58-103 66-365 66-245 0-274-5-299-51-6-12-13-87-16-168-5-152-15-211-37-211-8 0-33 53-59 123-25 67-103 275-172 462-143 383-338 878-396 1003-42 91-107 188-161 239-43 42-139 98-197 117-136 45-558 89-1161 122-258 13-1404 26-1710 18zm1785-368c720-42 1036-76 1116-117 22-10 50-36 63-57 63-95 506-1271 506-1342 0-40-30-81-75-101-42-19-104-19-2785-19s-2743 0-2785 19c-45 20-75 61-75 101 0 71 443 1247 506 1342 32 50 83 74 195 92 220 35 769 74 1384 100 44 2 440 2 880 1 590-2 871-7 1070-19zM2285 5515c182-47 404-104 495-126 190-46 211-53 239-83 22-23 102-254 122-355 15-70 4-104-48-155-40-39-167-103-267-136-58-19-83-22-155-17-152 9-680 125-784 171-68 30-111 67-145 125-26 44-27 51-26 181 0 105 5 156 23 230 41 167 100 250 181 250 19 0 184-39 365-85zm6120 65c80-49 138-243 139-460 1-130 0-137-26-181-34-58-77-95-145-125-104-46-632-162-784-171-72-5-97-2-155 17-100 33-227 97-267 136-52 51-63 85-48 155 19 92 99 330 118 352 29 31 42 35 366 117 172 44 398 101 502 129 214 56 254 60 300 31zm-1418-389c-4-32-11-70-16-85l-11-26H3300l-11 26c-5 15-12 53-16 85l-6 59h3726l-6-59zm-83-428c-9-54-39-99-77-114-48-21-3346-21-3394 0-38 15-68 60-77 114l-7 37h3562l-7-37zm-3834-334c291-51 213-49 2061-49 1123 0 1755 4 1806 10 43 6 147 22 231 36 84 15 156 24 158 21 8-7-134-120-231-183-114-74-145-85-270-94-141-10-3243-10-3391 0-96 6-120 12-175 39-106 53-354 239-319 240 8 1 67-8 130-20zm-977-549c220-38 523-95 576-110 22-6 49-22 61-38 45-56 10-127-172-352-107-131-147-163-238-186-79-20-239-15-349 11-62 14-80 24-116 59-58 58-70 122-70 366 0 158 3 190 18 221 20 39 47 57 89 58 15 1 105-12 201-29zm6321 19c51-24 61-66 61-269 0-244-12-308-70-366-36-35-54-45-116-59-110-26-270-31-349-11-91 23-131 55-238 186-182 225-217 296-172 352 26 34 40 38 335 93 475 89 506 93 549 74zm-1553-439c88-13 146-39 208-94l52-46H3139l52 46c60 53 121 82 199 93 80 12 3390 13 3471 1zm394-563c39-3 90-13 115-22 49-17 120-63 120-76 0-5-1041-9-2360-9s-2360 4-2360 9c0 13 70 58 120 78 38 14 93 18 360 23 387 6 3908 4 4005-3z"/>
    <path d="M1545 2608c3-68 10-225 16-350 14-315 34-381 138-447 73-47 121-53 428-49 237 3 284 6 316 20 69 32 115 76 149 146l33 67v185c0 162-2 189-18 213-10 16-28 32-40 37-12 4-105 13-206 20-419 26-621 89-766 239-21 23-43 41-48 41-4 0-5-55-2-122z"/>
    <path d="M8665 2689c-145-150-347-213-766-239-101-7-194-16-206-20-12-5-30-21-40-37-16-24-18-51-18-213v-185l33-67c34-70 80-114 149-146 32-14 79-17 316-20 307-4 355 2 428 49 104 66 124 132 138 447 6 125 13 282 16 350 3 67 2 122-2 122-5 0-27-18-48-41z"/>
  </g>
</svg>