<svg xmlns="http://www.w3.org/2000/svg"
     viewBox="0 0 600 600"
     width="800"
     height="800"
     preserveAspectRatio="xMidYMid meet"
     role="img" aria-labelledby="svgTitle">
  <title id="svgTitle">SVG graphic</title>
  <g transform="translate(0,600) scale(0.1,-0.1)" fill="#000000" stroke="none">
    <path d="M2755 4584c-451-25-813-83-955-155-101-50-122-81-297-431-115-232-126-249-146-242-12 4-57 7-99 7-43-1-81 3-84 9-3 5 5 22 19 36 53 58 62 117 24 173-79 118-265 118-344 0-58-86 10-206 127-226 50-8 51-27 2-44-52-19-159-92-209-143-58-59-109-148-140-243-25-73-27-93-26-235 0-107 5-178 16-228 15-63 17-146 17-599 0-513 1-528 21-570 11-23 38-56 59-73l38-30h514l38 30c58 46 80 100 80 199v83l28-7c404-103 926-155 1567-155s1163 52 1568 155l27 7v-83c0-99 22-153 80-199l38-30h514l38 30c21 17 48 50 59 73 20 42 21 57 21 570 0 453 2 536 17 599 11 50 16 121 16 228 1 142-1 162-26 235-31 95-82 184-140 243-50 51-157 124-209 143-49 17-48 36 2 44 117 20 185 140 127 226-79 118-265 118-344 0-38-56-29-115 24-173 14-14 22-31 19-36-3-6-41-10-84-9-42 0-87-3-99-7-20-7-31 10-146 242-127 255-178 343-219 382-122 115-599 196-1208 204-140 2-286 2-325 0zm530-64c358-16 637-52 818-105 137-40 161-61 252-230 20-38 65-119 100-180 107-189 138-257 123-266-7-5-16-9-19-9s-25 37-49 83c-44 85-228 416-260 469-10 16-27 36-39 44-56 40-277 90-521 118-522 61-1195 45-1631-40-200-38-265-65-299-122-32-53-216-384-260-469-24-46-46-83-49-83s-12 4-19 9c-15 9 16 77 123 266 35 61 80 142 100 180 91 169 115 190 252 230 295 86 857 128 1378 105zm195-700c271-19 485-41 635-66 135-22 356-64 362-69 2-1-19-24-45-51-67-70-153-221-117-208 8 3 17 15 20 25 4 11 41 55 83 98 107 108 201 150 337 151 220 0 439-145 522-345 89-212 45-546-118-893-197-421-515-557-1499-639-304-25-1006-25-1310 0-750 63-1093 157-1308 360-75 72-134 157-191 279-163 347-207 681-118 893 83 200 302 345 522 345 136-1 230-43 337-151 42-43 79-87 83-98 3-10 12-22 20-25 36-13-50 138-117 208-26 27-47 50-45 51 6 5 227 47 362 69 146 24 366 48 610 65 173 12 805 13 975 1z"/>
    <path d="M2495 3779c-339-23-678-73-807-119-68-25-54-24 117 0 389 57 672 74 1200 74s811-17 1200-74c171-24 185-25 117 0-130 47-420 90-772 115-221 16-843 18-1055 4z"/>
    <path d="M1870 3584c0-3 14-33 32-66 59-111 101-126 268-98 254 43 436 55 835 55s581-12 835-55c125-21 165-17 212 20 27 21 93 138 84 147-3 3-33-15-66-41s-72-51-88-55c-15-4-65-3-112 3-53 6-379 10-865 10s-812-4-865-10c-47-6-97-7-112-3-16 4-54 28-86 53-56 44-72 53-72 40z"/>
    <path d="M1058 3371c-76-25-119-53-172-112-64-71-90-143-90-249 0-118 27-185 108-266s148-108 266-108 185 27 266 108 108 148 108 266-27 185-108 266c-45 44-77 67-121 84-82 31-183 36-257 11zm247-72c63-30 123-90 155-154 35-72 35-198 0-270-31-64-91-124-155-155-72-35-198-35-270 0-260 127-238 495 35 594 63 23 170 16 235-15z"/>
    <path d="M1083 3254c-53-19-128-85-154-136-32-62-19-75 21-21 54 72 113 98 225 98s171-26 225-98c21-29 36-42 38-33 6 26-36 92-83 134-77 68-178 89-272 56z"/>
    <path d="M4728 3371c-76-25-119-53-172-112-64-71-90-143-90-249 0-118 27-185 108-266s148-108 266-108 185 27 266 108 108 148 108 266-27 185-108 266c-45 44-77 67-121 84-82 31-183 36-257 11zm247-72c63-30 123-90 155-154 20-41 25-65 25-135s-5-94-25-135c-31-64-91-124-155-155-72-35-198-35-270 0-260 127-238 495 35 594 63 23 170 16 235-15z"/>
    <path d="M4743 3254c-53-19-128-85-154-136-32-62-19-75 21-21 54 72 113 98 225 98s171-26 225-98c21-29 36-42 38-33 6 26-36 92-83 134-77 68-178 89-272 56z"/>
    <path d="M2960 3088c-53-28-64-114-19-154 31-28 102-26 131 4 31 30 32 102 2 132-26 26-81 35-114 18z"/>
    <path d="M2755 2814c-16-2-95-11-175-20-395-42-673-150-739-287-25-52-26-85-5-135 70-169 402-273 960-302 610-32 1171 66 1331 232 113 117 70 243-117 346-113 62-330 118-575 148-122 15-608 28-680 18z"/>
    <path d="M1587 2729c-42-25-47-57-47-299 0-245 5-276 49-300 25-13 77-13 102 0 44 24 49 55 49 300s-5 276-49 300c-25 13-81 12-104-1z"/>
    <path d="M4317 2729c-42-25-47-57-47-299 0-245 5-276 49-300 25-13 77-13 102 0 44 24 49 55 49 300s-5 276-49 300c-25 13-81 12-104-1z"/>
    <path d="M1165 2536c-102-44-124-181-41-254 140-123 338 67 219 209-47 55-116 72-178 45zm129-76c30-30 29-102-2-132-29-30-100-32-131-4-45 40-34 126 19 154 33 17 88 8 114-18z"/>
    <path d="M4725 2536c-102-44-124-181-41-254 140-123 338 67 219 209-47 55-116 72-178 45zm129-76c30-30 29-102-2-132-29-30-100-32-131-4-45 40-34 126 19 154 33 17 88 8 114-18z"/>
  </g>
</svg>