<svg xmlns="http://www.w3.org/2000/svg"
     viewBox="0 0 1024 1024"
     width="1365.333"
     height="1365.333"
     role="img" aria-labelledby="svgTitle">
  <title id="svgTitle">SVG graphic</title>
  <path d="M378 184.1c-39.8.9-65.6 2.4-72.6 4.3-12.7 3.4-25 14.1-31.5 27.6-4.2 8.6-27.7 67.2-45.4 113.3-4.4 11.6-7.5 15.7-11.5 15.7-6.8 0-9.2-6.1-8.3-21.5.7-11.6-.7-16.9-5-19.6-3-1.9-4.7-2-31.2-1.7-31.3.3-31 .3-38.5 7.8-5.8 5.8-7.3 11.9-6.8 28.8.3 12.4.5 14.1 2.8 18.2 1.4 2.4 4.5 5.8 6.8 7.5l4.4 3 33.6.5 33.6.5-20.1 17.8c-38.3 33.8-43.6 42-46.3 71.4-1.8 20-2.4 87.7-1 123.8.8 19.8 1.3 70.6 1.4 127 .1 88.9.2 94.3 2 99.5 6.2 18.4 19 30.3 36.4 33.9 8.2 1.7 50.3 1.4 58-.4 8.6-2.1 15-5.5 21.9-11.9 12.6-11.6 14.3-18.3 14.3-55.9V746h25.4c24.6 0 25.7-.1 35.2-2.7l9.9-2.8h333l9.9 2.7c9.5 2.7 10.6 2.8 35.2 2.8H749v27.7c0 37.6 1.7 44.3 14.3 55.9 6.9 6.4 13.3 9.8 21.9 11.9 7.7 1.8 49.8 2.1 58 .4 17.4-3.6 30.2-15.5 36.4-33.9 1.8-5.2 1.9-10.6 2-99.5.1-56.4.6-107.2 1.4-127 1.4-36.1.8-103.8-1-123.8-2.7-29.4-8-37.6-46.3-71.4l-20.1-17.8 33.6-.5 33.6-.5 4.4-3c2.3-1.7 5.4-5.1 6.8-7.5 2.3-4.1 2.5-5.8 2.8-18.2.5-16.9-1-23-6.8-28.8-7.5-7.5-7.2-7.5-38.5-7.8-26.5-.3-28.2-.2-31.2 1.7-4.3 2.7-5.7 8-5 19.6.9 15.4-1.5 21.5-8.3 21.5-4 0-7.1-4.1-11.5-15.7-17.7-46.1-41.2-104.7-45.4-113.3-6.6-13.6-19.5-24.8-32.2-27.8-14-3.4-90.9-5.2-213.4-5-51.1.1-108.1.5-126.5.9zM644.5 224c60.1 1.1 63.1 1.4 70.2 7.5 6.5 5.6 10.9 15.4 31.3 70 15.9 42.7 16 43.5 10.5 47.1-2.2 1.5-5.1 1.5-34.7 0-78.1-3.8-93.5-4.1-209.8-4.1s-131.7.3-209.8 4.1c-29.6 1.5-32.5 1.5-34.7 0-5.5-3.6-5.4-4.4 10.5-47.1 20.4-54.6 24.8-64.4 31.3-70 6.9-6 11.1-6.5 59.7-7.4 64.5-1.2 213.9-1.2 275.5-.1zM249 431c19.5 1.1 37.1 2.4 39 2.9 15.2 3.6 19.9 14.9 20 48.3 0 11.6 0 11.8-2.9 15l-3 3.3-14.3-.1c-14.5-.2-79.7-4.6-94.1-6.4-13.9-1.7-20.2-6.2-23.3-16.6-1.9-6.5-1.9-25.5.2-32.3 1.8-6.2 8.1-13.1 13.4-14.8 5.4-1.7 26.1-1.5 65 .7zm590.4-.8c5.9 1.8 12.1 8.4 14 14.9 2.1 6.8 2.1 25.8.2 32.3-3.1 10.4-9.4 14.9-23.3 16.6-14.4 1.8-79.6 6.2-94.1 6.4l-14.3.1-3-3.3c-2.9-3.2-2.9-3.4-2.9-15 .1-34.5 5.2-45.9 22-48.7 7-1.2 63.7-4.2 81.4-4.4 10-.1 17.4.4 20 1.1zm-156.5 4.4c6.8 2 13.3 7.9 15.7 14.2 1.5 4 1.8 8.3 2 27.2.2 35-.8 50.4-3.5 56.7-4.4 10.1-16.8 18.3-30.6 20.3-9.6 1.3-299.4 1.3-309 0-13.8-2-26.2-10.2-30.6-20.3-2.7-6.3-3.7-21.7-3.5-56.7.2-18.7.5-23.3 1.9-27.1 2.4-6.1 8.3-11.7 14.9-14 5.1-1.8 12.8-1.8 171.4-1.9 147.9 0 166.6.2 171.3 1.6zM236 589c46.7 1.4 46.6 1.4 50.7 5.5 3.5 3.5 4.2 6.9 2.2 10.8-1.7 3.3-20.6 27.5-25.8 33-8.4 9-8.9 9.2-38.1 9.5-14 .2-27.4.1-29.6-.3-5.6-.8-11.7-5-14.4-9.7-2.4-4.3-3.9-16.4-4-31.6 0-10.1 1.5-14.2 6.1-16.5 4.1-2 7.4-2.1 52.9-.7zm604.7.7c4.8 2.2 6.3 6.3 6.3 16.5-.1 15.2-1.6 27.3-4 31.6-2.7 4.7-8.8 8.9-14.4 9.7-2.2.4-15.6.5-29.6.3-29.2-.3-29.7-.5-38.1-9.5-5.2-5.5-24.1-29.7-25.8-33-2.4-4.7-.2-10.6 5.2-13.5 1.4-.8 13.7-1.6 35.2-2.3 51.2-1.8 61.1-1.8 65.2.2zM660.8 606c11.3 1.3 18.7 4.7 25.5 11.9 10.7 11.3 32 41.9 39.7 57.1 4.5 8.9 2 16.3-6.8 19.7-4.5 1.7-13.5 1.8-207.2 1.8s-202.7-.1-207.2-1.8c-8.8-3.4-11.3-10.8-6.8-19.7 7.7-15.2 29-45.8 39.7-57.1 6.4-6.8 14.5-10.7 24.1-11.9 9.9-1.1 289-1.2 299 0z"/>
  <path d="M349 455c-1.9 1.9-2 3.3-2 39v37.1l2.5 2.4c2.3 2.4 2.8 2.5 16.9 2.5 13.9 0 14.6-.1 17.3-2.4l2.8-2.4v-37c0-35-.1-37.1-1.9-39.1s-2.9-2.1-17.8-2.1c-14.5 0-16 .2-17.8 2zM408 455.2c-1.9 2.1-2 3.3-2 39v36.9l2.5 2.4c2.3 2.4 2.9 2.5 16.3 2.5 12.6 0 14.2-.2 16.6-2.1l2.6-2v-37.5c0-36.1-.1-37.5-2-39.4-1.8-1.8-3.3-2-17-2-14.1 0-15 .1-17 2.2zM465 455c-1.9 1.9-2 3.3-2 39v37.1l2.5 2.4c2.3 2.4 2.8 2.5 17 2.5s14.7-.1 17-2.5l2.5-2.4V494c0-35.7-.1-37.1-2-39-1.8-1.8-3.3-2-17.5-2s-15.7.2-17.5 2zM524 455c-1.9 1.9-2 3.3-2 39v37.1l2.5 2.4c2.3 2.4 2.8 2.5 17 2.5s14.7-.1 17-2.5l2.5-2.4V494c0-35.7-.1-37.1-2-39-1.8-1.8-3.3-2-17.5-2s-15.7.2-17.5 2zM582 455c-1.9 1.9-2 3.3-2 39.4v37.5l2.6 2c2.4 1.9 4 2.1 16.6 2.1 13.4 0 14-.1 16.3-2.5l2.5-2.4v-36.9c0-35.7-.1-36.9-2-39-2-2.1-2.9-2.2-17-2.2-13.7 0-15.2.2-17 2zM639.4 455.1c-1.8 2-1.9 4.1-1.9 39.1v37l2.8 2.4c2.7 2.3 3.4 2.4 17.3 2.4 14.1 0 14.6-.1 16.9-2.5l2.5-2.4V494c0-35.7-.1-37.1-2-39-1.8-1.8-3.3-2-17.8-2-14.9 0-16 .1-17.8 2.1zM357.6 630.5c-2.2.8-5.2 2.6-6.7 4.2-4.1 4.1-20.9 31.4-20.9 34 0 1.2 1 2.9 2.2 3.7 2 1.4 20.7 1.6 179.8 1.6s177.8-.2 179.8-1.6c1.2-.8 2.2-2.5 2.2-3.7 0-2.9-17.1-30.4-21.4-34.4-1.9-1.7-5.1-3.6-7.3-4.2-2.6-.8-50.4-1.1-153.8-1.1-125.8.1-150.6.3-153.9 1.5z"/>
</svg>