<svg xmlns="http://www.w3.org/2000/svg"
     viewBox="0 0 2048 2048"
     width="2730.667"
     height="2730.667"
     preserveAspectRatio="xMidYMid meet"
     role="img" aria-labelledby="svgTitle">
  <title id="svgTitle">SVG graphic</title>
  <g transform="translate(0,2048) scale(0.1,-0.1)" fill="#000000" stroke="none">
    <path d="M4709 14473c-540-709-990-1297-1001-1309l-19-21-427 138-427 139-525-3-525-2-50-25c-67-32-135-103-168-172l-27-57v-510c0-477 1-512 19-553 21-49 71-100 116-120 23-10 163-14 611-18l581-5-303-388-304-389V5028l30-62c36-77 119-158 195-192l56-24h2168l56 24c76 34 159 115 195 192l30 62v1102h10480V5028l30-62c36-77 119-158 195-192l56-24h2171l62 30c77 36 158 119 192 195l24 56v6147l-304 389-303 388 581 5c448 4 588 8 611 18 45 20 95 71 116 120 18 41 19 76 19 553v510l-27 57c-33 69-101 140-168 172l-50 25-525 2-525 3-427-139-427-138-19 21c-11 12-461 600-1001 1309l-982 1287H5691l-982-1287zm10883-728c609-814 1108-1482 1108-1485s-814-279-1808-613l-1807-608H7375l-1805 607c-993 334-1807 609-1809 610-5 4 33 54 1206 1622l1013 1352 4252-2 4252-3 1108-1480zM5548 11090c765-261 1392-477 1392-480s-91-132-203-285l-202-280-1608-3-1607-2v-530l1410-2 1409-3-227-307-227-307-1169-1H3348l6-23c3-13 133-385 290-828l284-804h1245l1156 1640 1157 1640h5488l1157-1640 1156-1640h1245l284 804c157 443 287 815 290 828l6 23h-1168l-1169 1-227 307-227 307 1409 3 1410 2v530l-1607 2-1608 3-202 280c-112 153-203 282-203 285 0 4 1272 440 3140 1076l355 121 338-453 337-453V9788l-1-1113-398-1030-399-1030h-1916l-266 375-266 375H6016l-266-375-266-375H3568l-399 1030-398 1030-1 1113v1113l338 453 337 453 355-121c196-67 982-335 1748-596z"/>
    <path d="M5497 13608c-436-563-797-1028-800-1035-8-12 251-100 1248-423 308-100 797-260 1087-356l526-174h5344l526 174c290 96 779 256 1087 356 997 323 1256 411 1248 423-3 7-364 472-800 1035л-794 1022H6291л-794-1022z"/>
    <path d="M7145 8960c-366-517-668-947-671-955-5-13 442-15 3756-15s3761 2 3756 15c-3 8-305 438-671 955л-666 940H7811л-666-940z"/>
  </g>
</svg>