<svg xmlns="http://www.w3.org/2000/svg"
     viewBox="0 0 1024 1024"
     width="1365.333"
     height="1365.333"
     preserveAspectRatio="xMidYMid meet"
     role="img" aria-labelledby="svgTitle">
  <title id="svgTitle">SVG graphic</title>
  <g transform="translate(0,1024) scale(0.1,-0.1)" fill="#000000" stroke="none">
    <path d="M3220 8564c-75-32-120-110-120-206v-38h320v-199l-272-3-273-3-67-32c-84-40-151-106-188-186-16-35-55-173-89-317-185-777-302-1261-316-1306-12-42-21-54-46-65-40-16-53-8-95 59-28 43-31 52-16 52 9 0 27 8 40 18l23 18-3 276c-3 261-4 278-24 304-11 15-33 37-48 48-26 20-40 21-301 21s-275-1-301-21c-68-50-69-53-72-302-4-259 1-288 55-329 35-27 41-28 189-33l153-5 114-155 114-155-43-80c-24-44-70-147-103-230l-61-150-137-6c-160-7-191-15-275-72-72-50-128-126-157-215-20-61-21-82-21-837 0-501 4-791 10-823 13-58 61-134 111-174 33-27 317-137 857-331 78-29 142-54 142-57 0-7-201-61-226-60-12 0-185 58-385 129s-374 132-387 136l-23 7 3-659 3-658 28-57c35-71 91-129 159-165l53-28h970l63 34c75 41 125 94 161 170l26 56 3 418 3 417h666l27-38c14-21 45-49 69-63l42-24h3090l42 24c24 14 55 42 69 63l27 38h666l3-417 3-418 26-56c36-76 86-129 161-170l63-34h970l53 28c68 36 124 94 159 165l28 57 3 658 3 659-23-7c-13-4-187-65-387-136s-373-129-385-129c-25-1-226 53-226 60 0 3 64 28 143 57 539 194 823 304 856 331 50 40 98 116 111 174 6 32 10 322 10 823 0 755-1 776-21 837-29 89-85 165-157 215-84 57-115 65-275 72l-137 6-61 150c-33 83-79 186-103 230l-43 80 114 155 114 155 153 5c148 5 154 6 189 33 54 41 59 70 55 329-3 249-4 252-72 302-26 20-40 21-301 21s-275-1-301-21c-15-11-37-33-48-48-20-26-21-43-24-304l-3-276 23-18c13-10 31-18 40-18 15 0 12-9-16-52-42-67-55-75-95-59-25 11-34 23-46 65-14 45-131 529-316 1306-34 144-73 282-89 317-37 80-104 146-188 186l-67 32-272 3-273 3v199h320v38c0 59-27 135-57 164-65 62 77 58-1965 58-1642-1-1867-3-1898-16zm3320-344v-100H3700v200h2840v-100zm709-456c62-31 106-86 125-158 8-28 41-172 75-321 33-148 81-362 107-474 52-231 52-260 1-292-27-16-43-19-97-14-114 10-654 35-977 45-427 14-1772 20-2298 10-451-8-815-22-1225-45-355-20-349-27-276 295 26 113 74 327 107 475 34 149 67 293 75 321 19 72 63 127 125 158l53 26h4152l53-26zm506-1799c160-41 291-147 364-296 68-138 71-164 71-675v-452l-135-216c-75-119-138-223-141-231-5-13 48-15 425-15h431v-190H7390v-541l-115 3-116 3-2 268-1 267H3084l-1-267-2-268-116-3-115-3v541H1470v190h431c377 0 430 2 425 15-3 8-66 112-141 231l-135 216v452c0 511 3 537 71 675 72 147 203 254 359 295 85 23 5187 23 5275 1z"/>
    <path d="M2477 5750c-84-27-154-84-204-167-49-83-53-120-53-515 0-331 2-373 18-415 10-27 87-157 171-290 138-220 156-243 195-262l42-21h4948l42 21c39 19 57 42 195 262 84 133 161 263 171 290 16 42 18 84 18 415 0 395-4 432-53 515-51 85-120 141-208 168-59 18-131 19-2642 18-2481 0-2584-1-2640-19zm508-155c189-50 327-216 351-423 19-171-86-363-243-444-91-48-158-62-258-56-181 12-340 140-397 321-53 167-7 369 111 487 110 110 281 155 436 115zm4506-1c210-63 334-231 332-454-2-194-100-350-271-431-78-37-196-50-283-29-225 52-389 274-365 492 24 204 161 372 347 422 73 20 173 20 240 0zm-3696-38c14-9 33-31 42-49 17-29 18-71 18-507 0-438-1-478-18-508-53-96-190-95-237 2-19 41-20 59-20 502 0 457 0 460 23 504 37 75 124 100 192 56zm541 8c22-10 43-32 54-55 19-36 20-62 20-516 0-456-1-479-20-510-53-88-188-83-230 9-18 41-20 69-20 503 0 458 0 461 23 505 36 72 104 97 173 64zm579-8c14-9 33-31 42-49 16-29 18-73 21-457 4-511 2-540-42-587-61-67-169-52-213 29-16 30-18 72-21 472-3 456 1 520 38 564 44 53 119 65 175 28zm528 15c42-16 76-62 87-117 7-33 10-206 8-490-3-400-5-442-21-472-44-81-152-96-213-29-44 47-46 76-42 587 3 406 4 427 23 460 33 56 101 82 158 61zm593-16c14-9 34-35 45-58 17-39 19-72 19-502 0-434-2-462-20-503-42-92-177-97-230-9-19 31-20 54-20 510 0 453 1 480 19 516 35 67 122 89 187 46zm560 0c14-9 34-35 45-58 17-39 19-72 19-501 0-443-1-461-20-502-47-97-184-98-237-2-17 30-18 70-18 508 0 460 1 476 20 510 39 66 127 87 191 45z"/>
  </g>
</svg>