<svg xmlns="http://www.w3.org/2000/svg"
     viewBox="0 0 1024 1024"
     width="1365.333"
     height="1365.333"
     preserveAspectRatio="xMidYMid meet"
     role="img" aria-labelledby="svgTitle">
  <title id="svgTitle">SVG graphic</title>
  <g transform="translate(0,1024) scale(0.1,-0.1)" fill="#000000" stroke="none">
    <path d="M4575 8389c-631-17-1252-66-1464-115-99-22-255-103-327-167-73-67-152-179-204-290-66-141-439-1082-516-1305-10-28-23-51-29-49-5 2-12 50-15 108-6 117-22 158-78 196-40 26-106 32-357 32-221 0-267-10-330-74-61-60-79-124-73-259 5-117 22-160 88-220 72-64 80-66 371-66h261l-58-62c-245-265-415-551-489-823-74-270-80-633-23-1307 18-219 22-356 27-1028l6-775 30-53c32-59 66-91 129-125 40-22 49-22 411-22s371 0 411 22c63 34 97 66 129 125l30 53 3 253 3 252h5238l3-253 3-252 30-53c32-59 66-91 129-125 40-22 49-22 411-22s371 0 411 22c63 34 97 66 129 125l30 53 6 775c5 672 9 809 27 1028 57 674 51 1037-23 1307-74 272-244 558-489 823l-58 62h261c291 0 299 2 371 66 66 60 83 103 88 220 6 135-12 199-73 259-63 64-109 74-330 74-251 0-317-6-357-32-56-38-72-79-78-196-3-58-10-106-15-108-6-2-19 21-29 49-77 223-450 1164-516 1305-91 194-203 314-365 394-117 57-176 72-391 98-560 70-1523 103-2349 80zm1510-258c645-38 924-68 1042-112 149-56 237-144 328-333 55-113 249-586 335-816 15-41 66-176 112-300 112-296 113-301 138-475 12-82 28-199 37-260 8-60 19-114 23-118 4-5 11 17 15 49 10 79 33 166 49 183 24 24 54 2 147-107 213-251 322-472 376-762 28-146 24-698-6-1035-53-600-95-748-256-911-89-91-132-116-242-145-75-19-140-19-3053-19s-2978 0-3053 19c-110 29-153 54-242 145-161 163-203 311-256 911-30 337-34 889-6 1035 54 290 163 511 376 762 93 109 123 131 147 107 16-17 39-104 49-183 4-32 11-54 15-49 4 4 15 58 23 118 67 477 51 407 175 735 46 124 97 259 112 300 86 230 280 703 335 816 91 189 179 277 328 333 144 53 500 85 1377 125 161 7 1405-3 1575-13z"/>
    <path d="M4150 7929c-548-22-888-49-991-79-77-23-139-65-173-117-14-21-54-110-89-198-293-723-423-1048-439-1094-24-68-16-91 44-123 42-22 50-23 278-21 129 1 471 8 760 15 676 16 2504 16 3180 0 289-7 631-14 760-15 228-2 236-1 278 21 60 32 68 55 44 123-16 46-146 371-439 1094-35 88-75 177-89 198-34 52-96 94-173 117-106 31-440 57-1025 80-296 11-1632 11-1926-1z"/>
    <path d="M2410 5568c-96-9-217-47-300-95-36-21-102-74-147-119-67-68-89-97-126-175-52-108-69-177-69-289s17-181 69-290c38-79 59-107 132-180 144-143 312-211 521-211s378 68 520 211c139 138 201 284 201 470s-62 332-201 470c-67 67-103 95-170 128-138 69-277 95-430 80zm232-268c126-39 221-119 284-240 27-51 29-63 29-170s-2-119-28-170c-87-168-241-260-437-260s-348 90-436 260c-27 51-29 63-29 165 0 99 3 116 28 169 55 119 155 206 281 246 85 26 223 27 308 0z"/>
    <path d="M7690 5568c-171-16-322-88-445-212-134-135-196-284-196-466 0-186 62-332 201-470 142-143 311-211 520-211s377 68 521 211c73 73 94 101 132 180 52 109 69 178 69 290 0 111-17 181-67 285-129 269-417 423-735 393zm232-268c129-40 229-126 285-246 25-53 28-70 28-169 0-102-2-114-29-165-88-170-240-260-436-260s-350 92-437 260c-26 51-28 63-28 170s2 119 29 170c62 119 157 201 280 240 85 26 223 27 308 0z"/>
    <path d="M3441 5130c-75-18-131-86-131-160 0-76 56-142 136-160 52-13 3316-13 3368 0 180 41 180 279 0 320-48 12-3325 11-3373 0z"/>
    <path d="M3441 4690c-75-18-131-86-131-160 0-76 56-142 136-160 52-13 3316-13 3368 0 180 41 180 279 0 320-48 12-3325 11-3373 0z"/>
    <path d="M1895 3965c-24-24-25-28-25-182 0-248 23-320 135-435 30-32 57-58 58-58 2 0 0 24-4 53-4 28-11 129-15 224-6 134-4 176 6 188 11 13 59 15 355 15h343l4-162c3-135 6-169 22-198 26-49 74-98 121-123l40-22h2195c2122 0 2196 1 2230 19 49 26 98 74 123 121 19 35 22 59 25 203l4 162h343c296 0 344-2 355-15 10-12 12-54 6-188-4-95-11-196-15-224-4-29-6-53-4-53 1 0 28 26 58 58 112 115 135 187 135 435 0 154-1 158-25 182l-24 25H1919l-24-25z"/>
  </g>
</svg>