<svg xmlns="http://www.w3.org/2000/svg"
     viewBox="0 0 1024 1024"
     width="1365.333"
     height="1365.333"
     preserveAspectRatio="xMidYMid meet"
     role="img" aria-labelledby="svgTitle">
  <title id="svgTitle">SVG graphic</title>
  <g transform="translate(0,1024) scale(0.1,-0.1)" fill="#000000" stroke="none">
    <path d="M5086 7993c-2-10-7-58-10-108-9-135-26-294-36-350-5-27-12-84-15-126l-6-76-77-11c-210-31-284-54-332-102-38-38-80-117-80-150 0-20 6-20 570-20s570 0 570 20c0 33-42 112-80 150-48 48-122 71-332 102l-77 11-6 76c-3 42-10 99-15 126-10 56-27 215-36 350-6 100-11 125-24 125-5 0-11-8-14-17z"/>
    <path d="M1675 7339c-3-8-4-228-3-489 3-537-3-503 84-452l49 28 1 300c0 165 4 306 8 312 6 9 159 12 633 12l625-1 44 28c24 15 44 34 44 41 0 9-137 12-654 12-360 0-661 3-670 6-13 5-16 22-16 84 0 84-9 102-64 114-16 4-39 9-52 12-15 4-26 1-29-7z"/>
    <path d="M8470 7340c-8-5-24-10-36-10-40 0-54-30-54-112 0-60-3-77-16-82-9-3-310-6-670-6-517 0-654-3-654-12 0-7 20-26 44-41l44-28 625 1c474 0 627-3 633-12 4-6 8-147 8-312l1-300 49-28c87-52 81-86 81 462 0 477 0 485-20 488-11 1-27-2-35-8z"/>
    <path d="M4215 7233c-27-2-97-8-155-14s-121-12-140-14c-87-8-325-47-425-69-238-54-312-91-428-217-64-68-123-148-333-450-18-25-77-118-132-206s-125-197-156-243c-38-55-53-87-47-93 14-14 107 93 355 406 321 406 378 467 473 516 85 42 266 90 483 127 25 4 47 8 50 9 93 22 393 54 567 62 67 3 105 9 112 17 11 13 61 151 61 168 0 8-176 8-285 1z"/>
    <path d="M5700 7233c0-17 49-155 61-169 7-8 45-14 112-17 174-8 474-40 567-62 3-1 25-5 50-9 217-37 398-85 483-127 95-49 152-110 473-516 248-313 341-420 355-406 6 6-9 38-47 93-31 46-101 155-156 243s-114 181-132 206c-210 302-269 382-333 450-116 126-190 163-428 217-100 22-338 61-425 69-19 2-78 8-130 14-143 16-450 26-450 14z"/>
    <path d="M1907 6838c-37-17-66-36-64-41 2-6 187-9 502-8l500 1 28 32c15 18 27 36 27 40s-208 8-462 8h-463l-68-32z"/>
    <path d="M7300 6862c0-4 12-22 28-40l27-32 500-1c318-1 500 2 502 8 2 5-27 24-65 41l-69 32h-461c-254 0-462-4-462-8z"/>
    <path d="M3820 6824c-137-7-290-26-410-50-127-26-289-75-325-98-25-16-73-96-205-341-115-213-260-458-327-553-26-36-42-69-39-78 11-30 150-84 381-148 74-21 231-55 305-66 36-5 108-16 160-24s187-20 300-26 221-16 240-23c26-9 323-12 1200-12s1174 3 1200 12c19 7 127 17 240 23s248 18 300 26 124 19 160 24c263 40 667 165 686 214 3 9-13 42-39 78-67 95-212 340-327 553-132 245-180 325-205 341-61 39-335 108-540 135-65 9-456 12-1390 14-715 1-1329 0-1365-1z"/>
    <path d="M1916 6355c-62-21-246-174-246-203 0-8 22-12 68-12 41 0 91-8 123-19 67-23 182-84 231-122 20-16 41-29 47-29 5 0 12 19 16 43 14 86 103 214 178 253 50 27 34 41-55 47-102 8-195 22-270 40-46 11-63 12-92 2z"/>
    <path d="M8175 6350c-87-21-226-40-288-40-55 0-64-21-19-44 74-39 163-167 177-253 4-24 11-43 16-43 6 0 27 13 47 29 49 38 164 99 231 122 32 11 82 19 123 19 47 0 68 4 68 12 0 16-108 117-174 163-73 50-98 55-181 35z"/>
    <path d="M670 6030c0-223 2-272 14-276 8-3 81 9 163 26 215 45 254 52 261 45 10-10 11-89 1-107-5-9-26-22-46-28-59-19-167-78-210-115-21-18-52-56-67-85l-29-53 7-156 7-157-38-79c-35-75-38-86-38-175 0-52 3-167 7-255 6-129 5-171-8-219-8-33-22-105-30-160-8-56-18-126-24-156-12-72-30-392-30-546 0-292 51-500 147-605 20-22 28-49 43-153 22-149 39-189 101-231 60-41 145-62 344-86 412-51 738-77 1273-103 335-17 345-16 492 64 41 22 98 52 126 66l52 24h3824l52-24c28-14 85-44 126-66 147-80 157-81 492-64 535 26 861 52 1273 103 199 24 284 45 344 86 62 42 79 82 101 231 15 104 23 131 43 153 96 105 147 313 147 605 0 154-18 474-30 546-6 30-16 100-24 156-8 55-22 127-30 160-13 48-14 90-8 219 4 88 7 203 7 255 0 89-3 100-38 175l-38 79 7 157 7 156-29 53c-15 29-46 67-67 85-43 37-151 96-210 115-20 6-41 19-46 28-10 18-9 97 1 107 7 7 46 0 261-45 82-17 155-29 163-26 12 4 14 53 14 276v270h-377c-208 0-402-3-430-6l-53-7v-169c0-195-13-173 125-203 117-25 126-32 120-102-3-31-10-60-17-64-6-4-27-4-47-1-20 4-121 7-226 7-286 0-386-24-680-162-180-85-227-113-192-113 18 0 258 33 362 50 148 24 318 35 550 35 211 0 260-3 315-18 88-25 219-89 252-124l28-29-10-104c-8-90-62-429-115-720-27-145-57-324-59-344-2-36 22-27 55 21 18 26 55 75 83 108 27 33 69 91 94 128 29 45 48 65 54 59s9-136 6-351l-3-342-25-19c-14-11-72-45-130-76s-154-84-215-117c-284-155-650-347-661-347-7 0-49 75-94 166-118 243-125 261-110 279 7 8 16 15 21 15s102 45 216 101c115 55 249 119 298 141 50 22 96 45 103 51 32 25-14 25-133-2-72-16-179-39-240-50-60-11-184-34-275-51-235-45-586-96-1060-156-897-112-1278-139-1960-139s-1063 27-1960 139c-474 60-825 111-1060 156-91 17-214 40-275 51-60 11-168 34-240 50-119 27-165 27-133 2 7-6 54-29 103-51 50-22 183-86 298-141 114-56 211-101 216-101s14-7 21-15c15-18 8-36-110-279-45-91-87-166-94-166-11 0-377 192-661 347-60 33-157 86-215 117s-116 65-130 76l-25 19-3 342c-3 215 0 345 6 351s25-14 54-59c25-37 67-95 94-128 28-33 65-82 83-108 33-48 57-57 55-21-2 20-32 199-59 344-53 291-107 630-115 720l-10 104 28 29c33 35 164 99 252 124 117 33 619 23 865-17 104-17 344-50 362-50 35 0-12 28-192 113-294 138-394 162-680 162-104 0-206-3-226-7-20-3-41-3-47 1-7 4-14 33-17 64-6 70 3 77 120 102 138 30 125 8 125 203v169l-52 7c-29 3-223 6-430 6H670v-270zm780 223c13-14 18-262 6-272-9-7-85-21-191-35-75-11-134-20-230-38-162-30-184-32-190-17-3 8-12 50-20 94-48 255-49 266-38 273 16 10 654 5 663-5zm7968 2c4-3-2-47-11-98-38-207-47-253-52-266-6-15-28-13-190 17-96 18-155 27-230 38-106 14-182 28-191 35-16 13-6 261 11 274 13 11 653 10 663 0zM3880 3530c19-19 20-33 20-222 0-228-6-253-74-317-31-30-38-33-60-23-13 6-39 32-57 59-30 42-34 57-37 125-4 73-5 77-32 88-19 8-132 10-386 8-412-3-367 7-504-113-41-36-95-80-119-98-24-17-67-49-95-70-37-27-59-37-81-35l-30 3-3 114-3 113 103 104 102 104h506c380 0 509 3 518 12 7 7 12 39 12 74 0 83 15 94 122 94 65 0 81-3 98-20zm2638 4c19-13 22-24 22-78 0-35 5-67 12-74 9-9 138-12 518-12h506l102-104 103-104-3-113-3-114-30-3c-22-2-44 8-81 35-28 21-71 53-95 70-24 18-78 62-119 98-137 120-92 110-504 113-254 2-367 0-386-8-27-11-28-15-32-88-3-68-7-83-37-125-18-27-44-53-57-59-22-10-29-7-60 23-68 64-74 89-74 317 0 247-3 242 118 242 54 0 84-5 100-16zm-5390-71c169-88 272-140 291-147 40-14 316-183 327-201 11-17 9-29-11-79-42-103-36-101-221-82-234 25-396 37-403 31-10-10 22-24 79-35 30-5 93-19 140-29 47-11 119-26 160-32s95-15 120-20c94-18 180-29 345-44 94-8 202-19 240-24 39-6 180-15 315-21 135-7 258-16 275-21 25-8 43-3 125 35 129 61 191 80 237 71 83-15 750-23 1953-23s1870 8 1953 23c46 9 108-10 237-71 82-38 100-43 125-35 17 5 140 14 275 21 135 6 277 15 315 21 39 5 147 16 240 24 165 15 251 26 345 44 25 5 79 14 120 20s113 21 160 32c47 10 110 24 140 29 57 11 89 25 79 35-7 6-169-6-403-31-185-19-179-21-221 82-20 50-22 62-11 79 11 18 287 187 327 201 19 7 122 59 291 147 70 37 134 67 143 67 22 0 32-27 38-105 4-38 11-106 17-150 20-153 8-483-19-533-9-17-103-43-146-41-11 0-58-4-105-10s-134-16-195-22c-60-6-123-12-140-15-36-4-199-19-460-40-361-29-401-32-631-44l-230-13-55 27c-30 15-90 48-134 72-44 25-96 49-115 55-23 7-137 8-325 4-376-8-2854-8-3230 0-188 4-302 3-325-4-19-6-71-30-115-55-44-24-104-57-134-72l-55-27-230 13c-230 12-270 15-631 44-261 21-424 36-460 40-16 3-79 9-140 15-60 6-148 16-195 22s-94 10-105 10c-43-2-137 24-146 41-27 50-39 380-19 533 6 44 13 112 17 150 6 78 16 105 38 105 9 0 73-30 143-67z"/>
    <path d="M3305 5372c-14-14 7-27 177-112 100-50 234-120 297-154 64-35 171-91 237-125l122-61 143-221c242-370 391-593 410-613 38-41 32-1-14 87-26 51-130 263-230 472s-187 388-193 398c-12 21-50 36-444 167-162 55-341 114-397 133s-105 32-108 29z"/>
    <path d="M6785 5343c-55-19-233-78-395-133-395-132-432-146-444-167-6-10-93-189-193-398s-204-421-230-472c-46-88-52-128-14-87 19 20 168 243 410 613l143 221 122 61c66 34 173 90 237 125 63 34 197 104 297 154s182 95 182 100c0 18-18 16-115-17z"/>
    <path d="M2326 5342c-6-10 88-171 280-475 54-87 117-187 139-223 22-35 53-80 68-99l28-35h925l45-29c50-32 123-107 254-261 49-58 126-146 170-195 44-50 100-116 125-147 43-55 63-68 74-49 3 5-111 183-254 397l-259 389-133 108c-371 301-483 389-541 421-85 47-337 114-567 151-52 8-129 22-170 30-119 22-177 28-184 17z"/>
    <path d="M7780 5340c-181-28-323-53-370-65-30-7-82-19-115-25-126-25-283-73-342-106-58-32-170-119-541-421l-133-108-259-389c-143-214-257-392-254-397 11-19 31-6 74 49 25 31 81 97 125 147 44 49 121 137 170 195 131 154 204 229 254 261l45 29h925l28 35c15 19 46 64 68 99 22 36 85 136 139 223 188 298 286 464 281 474-7 10-28 10-95-1z"/>
    <path d="M1130 5056c-7-9-7-22-2-37 5-13 12-46 16-74 23-170 81-435 107-486 42-84 111-122 291-160 147-31 529-107 573-113 37-6 58 3 300 136 156 86 260 149 260 158 0 21 23 11-485 208-134 52-525 198-610 227-437 153-439 154-450 141zm313-235c45-16 136-50 202-76 154-59 283-106 469-170 82-28 151-56 153-61 2-6-29-31-68-54l-72-43-66 13c-36 6-120 20-186 30-145 22-307 49-355 58-33 7-39 16-117 162-46 84-83 157-83 162 0 15 42 8 123-21z"/>
    <path d="M8765 4966c-282-100-540-195-755-278-503-195-485-187-485-208 0-9 104-72 260-158 242-133 263-142 300-136 22 3 139 25 260 50 478 95 502 102 562 167 21 23 44 56 50 72 16 40 49 175 63 255 6 36 19 115 30 175 10 61 21 117 25 126 18 45-19 37-310-65zm115-124c0-5-37-78-82-162-79-146-85-155-118-162-48-9-210-36-355-58-66-10-150-24-186-30l-66-13-72 43c-39 23-70 48-68 54 2 5 71 33 153 62 196 67 293 102 444 160 69 26 163 62 210 80 84 31 140 42 140 26z"/>
    <path d="M858 4198c-2-7-1-82 3-166 5-138 8-156 27-174 24-24 26-25 357-149 132-49 275-103 319-120 124-48 115-23-26 71-230 154-443 326-598 484-67 69-75 74-82 54z"/>
    <path d="M9260 4144c-155-158-368-330-598-484-141-94-150-119-26-71 44 17 187 71 319 120 331 124 333 125 357 149 19 18 22 36 27 174 7 150 6 178-8 178-4 0-36-30-71-66z"/>
    <path d="M5051 4160c-50-12-112-60-135-104-64-126 0-272 137-308 154-41 298 118 245 273-34 102-145 164-247 139z"/>
  </g>
</svg>