<svg xmlns="http://www.w3.org/2000/svg"
     viewBox="0 0 780 780"
     width="1040"
     height="1040"
     preserveAspectRatio="xMidYMid meet"
     role="img" aria-labelledby="svgTitle">
  <title id="svgTitle">SVG graphic</title>
  <g transform="translate(0,780) scale(0.1,-0.1)" fill="#000000" stroke="none">
    <path d="M3020 6079c-431-12-766-34-824-55-80-28-126-82-181-214-67-161-159-395-326-828l-144-373-118-61c-123-64-234-153-277-222-38-62-58-176-74-408-17-237-36-675-36-820v-88h405c441 0 420 3 518-63 32-21 80-49 105-60l47-22h3550l47 22c25 11 73 39 105 60 98 66 77 63 518 63h405v88c0 145-19 583-36 820-16 232-36 346-74 408-43 69-154 158-277 222l-118 61-144 373c-167 433-259 667-326 828-55 132-101 186-181 214-145 51-1604 82-2564 55zm1820-229c578-28 646-35 675-64 12-12 73-153 140-321 64-165 151-369 191-454 41-85 73-155 72-157-2-1-158 9-348 22-581 40-818 53-1258 70-388 14-456 14-845 0-439-17-676-30-1257-70-190-13-346-23-348-22-1 2 29 68 67 147 39 79 122 276 186 437 131 334 137 347 166 363 33 17 597 50 1074 63 227 6 1280-4 1485-14zM2170 4670c191-65 234-100 284-230l17-45h2838l17 45c23 60 54 108 95 146 30 28 131 68 359 140 9 3 7-1-5-11-91-71-385-319-385-324 0-3 26-23 58-43 31-21 90-67 131-103l74-65h391c370 0 393-1 423-20 63-38 66-55 64-344-2-281-6-303-59-359-53-57-87-66-374-102-149-19-287-35-307-35-56 0-117-37-173-104-58-70-96-100-147-118-53-19-3109-19-3162 0-51 18-89 48-147 118-56 67-117 104-173 104-20 0-158 16-307 35-287 36-321 45-374 102-53 56-57 78-59 359-2 289 1 306 64 344 30 19 53 20 423 20h391l74 65c41 36 100 82 131 103 32 20 58 40 58 43 0 5-294 253-385 324-12 10-14 14-5 11 8-2 85-28 170-56z"/>
    <path d="M3780 4277c-3-2-304-7-670-11l-665-7-45-31c-118-83-149-113-160-152-8-28-10-137-5-375l7-336 83-82 83-83h2964l83 83 83 82 7 336c5 238 3 347-5 375-11 39-44 71-160 151l-45 32-555 5c-305 4-654 9-775 12s-222 4-225 1zm1550-302v-35H2450v70h2880v-35zm0-260v-35H2450v70h2880v-35zm0-250v-35H2450v70h2880v-35z"/>
    <path d="M1423 4060c-39-16-43-40-43-256 0-190 2-209 20-239 11-18 35-40 53-48 33-16 520-77 611-77 35 0 48 5 56 19 6 12 10 115 10 265 0 260-8 314-51 336-22 12-626 12-656 0zm515-107 82-6v-387h-30c-16 0-130 12-252 26-173 19-226 29-235 42-9 11-13 63-13 174v158h183c100 0 219-3 265-7z"/>
    <path d="M5698 4058c-42-31-48-75-48-333 0-151 4-254 10-266 8-14 21-19 56-19 91 0 578 61 611 77 18 8 42 30 53 48 18 30 20 49 20 243 0 192-2 212-19 233l-19 24-324 3c-252 2-327 0-340-10zm592-256c0-111-4-163-12-174-10-13-63-23-236-42-122-14-236-26-252-26h-30v389l58 4c31 2 150 4 265 5l207 2v-158z"/>
    <path d="M921 5241c-18-10-44-35-57-57-22-36-24-50-24-177 0-204 18-230 180-262 47-9 164-34 260-56 96-21 178-35 181-31 4 4 23 43 42 87s54 120 76 169l41 89-64-6-64-6-4 110c-3 107-4 112-31 135-28 24-29 24-265 24-209-1-241-3-271-19z"/>
    <path d="M6323 5236c-27-23-28-28-31-135l-4-110-64 6-64 6 41-89c22-49 57-125 76-169s38-83 42-87c3-4 85 10 181 31 96 22 213 47 260 56 162 32 180 59 180 260 0 124-2 141-22 177-41 73-63 78-332 78-234 0-235 0-263-24z"/>
    <path d="M970 2885c-23-24-25-34-22-103 4-109 31-398 42-455 20-97 80-176 165-217 45-22 99-30 624-99 303-40 311-42 311-88 0-18 8-23 48-30 62-10 3442-10 3505 0 39 7 47 12 47 30 0 46 8 48 311 88 639 84 627 81 704 156s97 163 124 543c9 132 6 154-27 183-18 17-47 18-434 15l-415-3-51-32c-170-107-135-96-315-105-211-11-3183-11-3394 0-180 9-145-2-315 105l-51 32-416 3-417 3-24-26zm809-268c6-8 18-41 26-75 18-68 8-135-21-146-14-5-365 27-425 40-39 8-86 63-98 113-18 83-25 81 258 81 194 0 251-3 260-13zm4740-5c26-49-38-164-98-176-60-13-411-45-425-40-29 11-39 78-21 146 8 34 20 67 26 75 9 10 66 13 260 13 230 0 249-1 258-18zm-1342-193c14-13 41-55 60-93s46-87 60-108 24-41 21-43c-6-7-2850-7-2856 0-3 2 7 22 21 43s41 70 60 108c33 66 67 107 94 115 7 2 576 3 1264 3l1251-2 25-23z"/>
    <path d="M1002 1743c3-335 4-349 25-389 28-52 90-108 138-124 28-9 110-11 314-8 232 4 282 7 316 22 55 23 84 52 111 111 21 44 24 65 24 166 0 64-3 176-6 250l-7 135-206 23c-516 58-580 71-668 137-17 13-34 24-38 24-3 0-5-156-3-347z"/>
    <path d="M6740 2069c-79-66-154-82-671-140l-206-23-7-135c-3-74-6-186-6-250 0-101 3-122 24-166 27-59 56-88 111-111 34-15 84-18 316-22 204-3 286-1 314 8 48 16 110 72 138 124 21 40 22 54 25 389 2 191-1 347-5 347-4-1-19-10-33-21z"/>
  </g>
</svg>