<svg xmlns="http://www.w3.org/2000/svg"
     viewBox="0 0 720 720"
     width="960"
     height="960"
     preserveAspectRatio="xMidYMid meet"
     role="img" aria-labelledby="svgTitle">
  <title id="svgTitle">SVG graphic</title>
  <g transform="translate(0,720) scale(0.1,-0.1)" fill="#000000" stroke="none">
    <path d="M2165 5891c-165-48-300-145-381-273-15-24-75-131-132-238s-147-270-199-362l-95-168h-207c-312 0-311 1-311-200 0-149 9-173 69-190 20-5 68-10 107-10 45 0 77-5 90-14 18-14 16-20-61-168-44-84-100-192-124-240l-44-87 16-98c31-191 68-389 116-627 67-326 80-381 96-402 13-18 83-19 2475-19s2462 1 2475 19c16 21 29 76 96 402 48 238 85 436 116 627l16 98-44 87c-24 48-80 156-124 240-77 148-79 154-61 168 13 9 45 14 90 14 39 0 87 5 107 10 60 17 69 41 69 190 0 201 1 200-311 200h-207l-95 168c-52 92-142 256-201 365-58 109-122 223-142 253-68 102-189 192-326 242l-73 27-1370 2c-1279 2-1374 1-1430-16zm2790-132c135-43 221-99 282-186 36-53 102-168 278-493 35-63 126-230 203-370 134-246 310-575 379-710 18-36 33-78 33-95 0-42-110-646-121-667-9-17-131-18-2429-18s-2420 1-2429 18c-11 21-121 625-121 667 0 17 15 59 33 95 69 135 245 464 379 710 77 140 168 307 203 370 176 325 242 440 278 493 77 111 194 173 377 201 14 2 605 3 1315 2 1138-1 1296-4 1340-17zM1900 3070c12-12 20-33 20-55s-8-43-20-55c-19-19-33-20-289-20-148 0-277 3-286 6-19 7-45 55-45 82 0 10 9 28 20 40 20 22 26 22 300 22 267 0 281-1 300-20zm3960-2c11-12 20-30 20-40 0-27-26-75-45-82-9-3-138-6-286-6-256 0-270 1-289 20-12 12-20 33-20 55s8 43 20 55c19 19 33 20 300 20 274 0 280 0 300-22z"/>
    <path d="M2306 5668c-76-14-190-71-245-123-35-33-65-77-102-148-47-93-133-253-335-629-83-153-92-191-46-210 39-16 3965-16 4005 0 45 19 36 57-47 210-202 376-288 536-335 629-37 71-67 115-102 148-58 54-169 108-253 124-76 14-2467 13-2540-1zm1608-117c29-27 35-84 13-111-38-49-44-50-347-50-253 0-288 2-310 17-38 26-49 45-50 84 0 35 24 69 60 82 8 3 149 5 312 4l296-2 26-24z"/>
    <path d="M2575 4382c-8-107-3-132 30-132 30 0 37 32 33 140-3 73-4 75-29 78-27 3-27 3-34-86z"/>
    <path d="M4527 4463c-9-8-9-160-1-190s50-31 59-2c4 12 4 61 0 110-7 83-9 89-29 89-13 0-26-3-29-7z"/>
    <path d="M2246 4159c-115-4-239-13-277-18-37-6-91-11-120-11-32 0-49-4-43-9 23-22 429-39 1152-50 1006-15 2356 13 2395 49 4 4-34 10-85 14s-133 12-183 17c-116 12-2565 19-2839 8z"/>
    <path d="M2080 3970c-547-5-609-7-651-23-70-27-124-79-161-155-30-61-33-74-32-157 0-60 6-102 16-127 27-61 94-125 156-150l57-23h4230l57 23c62 25 129 89 156 150 10 25 16 67 16 127 1 83-2 96-32 157-37 77-92 128-161 154-41 16-116 18-736 25-778 8-2014 7-2915-1zm-479-112c124-37 186-185 129-303-63-131-266-149-353-33-66 90-61 192 14 273 60 65 133 87 210 63zm4082-4c106-36 170-161 136-265-46-138-203-187-330-104-104 67-107 250-5 331 67 53 123 64 199 38zm-3518-13c104-47 153-174 106-276-53-114-179-156-292-97-146 76-144 298 3 371 53 26 128 27 183 2zm3036-16c53-37 82-93 87-164 13-187-214-292-352-163-107 101-76 281 59 344 61 29 152 21 206-17z"/>
    <path d="M895 3159c-3-13-4-245-3-516 3-479 4-492 24-519 11-15 33-37 48-48 26-20 40-21 341-21s315 1 341 21c60 45 69 66 72 187 3 89 7 115 20 125 11 9 75 12 237 12h222l44 30 44 30h2590l44-30 44-30h222c162 0 226-3 237-12 13-10 17-36 20-125 3-121 12-142 72-187 26-20 40-21 341-21s315 1 341 21c15 11 37 33 48 48 20 27 21 40 24 519 1 271 0 503-3 516-10 40-24 11-66-132-21-75-52-164-69-200-34-73-107-147-173-177-41-19-95-20-2377-20s-2336 1-2377 20c-66 30-139 104-173 177-17 36-48 125-69 200-42 143-56 172-66 132z"/>
  </g>
</svg>