<svg xmlns="http://www.w3.org/2000/svg"
     viewBox="0 0 1024 1024"
     width="1365.333"
     height="1365.333"
     preserveAspectRatio="xMidYMid meet"
     role="img" aria-labelledby="svgTitle">
  <title id="svgTitle">SVG graphic</title>
  <g transform="translate(0,1024) scale(0.1,-0.1)" fill="#000000" stroke="none">
    <path d="M4180 7434c-277-8-1014-46-1143-59-191-20-219-37-268-152-11-26-24-57-29-68s-29-69-54-130c-24-60-65-159-91-220-39-92-223-548-312-773-14-35-23-65-21-67 6-5 380 15 473 26 101 11 223 33 305 54 145 37 563 88 865 106 659 39 1717 39 2370 0 296-18 690-66 860-106 33-8 85-19 115-24 30-6 79-15 108-21 46-9 181-18 474-34 42-2 79-2 82 1 5 5-14 59-64 178-16 39-57 140-91 225s-77 192-95 238c-256 622-291 702-327 725-55 36-190 49-767 78-347 18-566 22-1340 23-509 2-981 1-1050 0zm403-232c69-129 236-192 507-192 206 0 297 21 411 96 54 36 72 54 95 100l29 57 340-7c646-13 1047-33 1137-57 56-15 69-40 275-539 178-431 178-431 163-459-14-28-65-35-164-23-70 8-102 18-188 60-57 28-140 65-185 82-48 18-90 41-101 55-11 13-40 86-67 162-26 76-60 163-76 194-64 128-178 181-390 180-125 0-180-11-265-54-101-51-127-106-125-257 1-72-3-111-11-123-7-9-65-37-128-61s-142-57-175-74c-107-53-105-53-600-50l-460 3-95 46c-52 25-135 61-185 79-49 18-97 39-107 47-13 12-17 39-20 141-3 121-5 129-32 170-33 49-85 82-172 112-47 17-85 21-187 21-146 0-222-18-304-75-60-41-91-97-157-284-29-83-60-162-69-175-10-16-42-34-89-52-40-15-129-53-198-85-115-54-132-60-217-66-102-7-143 6-143 47 0 23 61 179 220 559 112 268 162 375 189 403 31 32 262 48 1016 70 50 2 182 3 295 3l205-1 28-53z"/>
    <path d="M1522 6450c-195-51-280-140-242-254 14-43 88-111 138-127 21-6 51-17 67-24 86-37 313-47 445-20 89 19 184 61 222 99 37 38 62 107 55 152-13 79-104 145-248 179-96 22-342 20-437-5z"/>
    <path d="M8204 6450c-198-52-274-151-213-277 50-103 210-163 439-163 216 0 407 67 455 159 23 45 19 121-7 161-30 44-125 95-224 120-109 27-346 27-450 0z"/>
    <path d="M4248 5985c-3-3-124-12-269-20-402-23-745-64-964-115-208-48-342-60-840-69-449-9-467-12-600-75-103-49-166-111-217-213-40-81-43-91-46-191-5-112 11-330 33-477 8-49 23-151 34-225 31-200 39-244 88-490 83-420 142-633 213-769 43-83 49-108 24-118-27-10-143 48-200 100-67 61-98 119-118 223-40 202-48 248-72 384-14 80-29 169-33 197-25 169-33-40-29-727 3-545 4-588 21-622 22-44 60-83 102-106 26-15 81-17 450-20 476-3 485-2 550 63 50 50 65 99 63 214 0 45 4 87 9 92 14 14 5263 13 5277-1 6-6 11-53 12-105 1-74 6-103 24-139 26-55 81-103 133-117 23-6 196-9 460-7l423 3 42 28c54 35 89 89 102 156 19 99 12 1376-8 1357-2-3-15-65-27-138-102-597-117-652-207-733-46-42-162-105-192-105-7 0-19 7-26 15-10 11-6 24 18 67 65 114 103 228 169 508 51 216 119 580 159 848 46 304 53 366 60 542 6 135 5 151-17 220-29 94-87 181-153 229-67 50-95 64-196 96-85 28-85 28-495 36-495 9-626 20-839 68-44 10-115 24-156 30s-104 16-140 22c-395 64-770 82-1771 86-465 2-848 1-851-2zm-2143-750c113-20 232-60 410-140 77-35 210-91 295-125 309-122 397-169 384-204-8-20-25-25-157-42-339-42-414-60-717-170-239-87-498 57-585 324-9 29-37 87-63 129-34 57-47 89-50 127-4 61 8 81 63 101s303 19 420 0zm6377 5c45-13 78-52 78-94 0-32-50-149-68-160-6-3-18-28-28-54-69-187-139-285-249-346-104-58-260-72-360-33-247 97-393 132-717 171-160 20-192 41-130 85 36 25 164 84 267 122 43 17 93 36 110 44 16 8 95 41 174 75s165 71 190 84c69 35 233 86 319 101 94 16 363 19 414 5zm-2067-780c77-5 219-13 315-18 187-11 335-26 407-42 136-31 208-144 172-273-20-73-129-217-279-368-198-199-356-314-555-402-240-106-364-117-1385-117-747 0-1063 12-1187 44-280 73-590 277-830 546-93 104-189 242-204 293-37 131 35 245 177 277 75 17 320 40 426 40 54 0 118 5 141 10 23 6 184 14 357 19 371 11 2242 4 2445-9zm-3966-605c114-22 202-50 301-97 184-88 187-112 17-141-49-9-97-23-106-31s-57-34-106-57c-75-35-103-43-166-47-130-8-246 37-343 133-63 63-86 105-86 160 0 39 34 80 73 88 60 12 340 6 416-8zm5705 1c92-38 86-133-16-236-122-123-299-171-445-120-68 23-149 64-173 85-10 9-57 22-105 31-97 17-125 28-125 48 0 46 255 159 432 191 102 19 388 19 432 1z"/>
    <path d="M4335 4290c-342-10-429-14-630-29-82-6-226-15-320-21-191-13-246-23-272-52-17-19-16-21 7-66 32-60 202-246 315-342 153-132 325-236 465-283 159-52 415-67 1190-67 782 0 1035 15 1195 70 214 74 480 269 672 493 94 110 113 138 113 171 0 53-54 63-510 93-140 9-343 19-450 24-322 12-1464 18-1775 9z"/>
  </g>
</svg>