<svg xmlns="http://www.w3.org/2000/svg"
     viewBox="0 0 4752 1024"
     width="6336"
     height="1365.333"
     preserveAspectRatio="xMidYMid meet"
     role="img" aria-labelledby="astacarTitle">
  <title id="astacarTitle">ASTACAR</title>
  <g transform="translate(0,1024) scale(0.1,-0.1)" fill="currentColor" stroke="none">
    <path
       d="M11435 8484c-806-63-1445-336-1845-786-234-264-366-533-431-878-29-152-36-465-15-626 75-566 353-953 889-1234 192-101 427-187 692-255 72-18 399-88 728-154 806-164 928-196 1156-308 121-59 143-74 216-147 129-129 185-277 185-491-1-350-232-642-610-769-100-33-298-72-438-86-141-13-537-14-697 0-609 50-1114 210-1619 510-65 39-148 91-183 115-35 25-67 45-71 45s-90-209-191-465c-149-378-181-468-171-480 6-8 62-48 123-88 562-371 1289-596 2097-648 229-15 697-7 870 15 249 31 493 84 670 144 647 223 1095 618 1300 1147 33 85 60 185 86 312 22 108 30 432 14 575-82 740-582 1210-1555 1458-82 21-415 91-740 155-324 64-644 129-710 145-418 100-672 256-784 483-57 117-74 196-74 352 0 257 74 436 250 606 192 186 471 297 847 339 127 13 508 14 646 0 590-60 1053-235 1485-562l110-84 187 446 186 445-46 43c-26 23-88 73-137 111-411 313-959 517-1605 596-129 16-686 29-815 19z"
       id="path1" />
    <path
       d="M29800 8479c-1023-82-1835-531-2347-1299-293-439-470-969-535-1600-17-168-17-753 0-930 69-696 283-1280 646-1765 102-135 346-386 476-489 492-389 1078-603 1800-657 173-13 651-7 790 11 682 84 1240 318 1686 707l61 53-194 472c-107 260-196 474-198 476s-43-29-92-68c-104-85-334-239-452-304-262-144-534-231-846-272-183-24-575-25-744-1-599 84-1028 339-1315 780-68 104-172 316-216 442-104 297-160 680-160 1094 1 1248 530 2042 1496 2245 196 41 303 50 564 50 350-1 557-30 825-119 280-92 544-237 834-457 57-44 105-77 107-75s91 215 197 473c146 352 191 472 183 483-27 35-214 182-335 262-413 277-917 440-1514 489-147 12-562 11-717-1z"
       id="path2" />
    <path
       d="M4181 7372c-255-565-918-2030-1474-3257-555-1227-1016-2245-1023-2263l-14-32h1215l304 703c168 386 319 734 337 772 17 39 118 274 223 524 105 249 202 476 215 505 22 45 236 552 955 2258 111 263 206 489 213 503 8 17 18 25 31 23 16-2 47-66 147-298 69-162 341-793 603-1402 262-608 477-1111 477-1117 0-8-221-11-754-11h-753l-191-452c-105-249-194-461-197-470-7-17 52-18 1143-18h1149l329-760 329-760h613c337 0 611 3 609 8-2 4-680 1484-1507 3290L5656 8400H4645l-464-1028z"
       id="path3" />
    <path
       d="M14580 7905v-495h5550v990h-5550v-495z"
       id="path4" />
    <path
       d="M22031 7372c-255-565-918-2030-1474-3257-555-1227-1016-2245-1023-2263l-14-32h1215l304 703c168 386 319 734 337 772 17 39 118 274 223 524 105 249 202 476 215 505 22 45 236 552 955 2258 111 263 206 489 213 503 8 17 18 25 31 23 16-2 47-66 147-298 69-162 341-793 603-1402 262-608 477-1111 477-1117 0-8-221-11-754-11h-753l-191-452c-105-249-194-461-197-470-7-17 52-18 1143-18h1149l329-760 329-760h613c337 0 611 3 609 8-2 4-680 1484-1507 3290l-1504 3282h-1011l-464-1028z"
       id="path5" />
    <path
       d="M35151 7372c-255-565-918-2030-1474-3257-555-1227-1016-2245-1023-2263l-14-32h1215l304 703c168 386 319 734 337 772 17 39 118 274 223 524 105 249 202 476 215 505 22 45 236 552 955 2258 111 263 206 489 213 503 8 17 18 25 31 23 16-2 47-66 147-298 69-162 341-793 603-1402 262-608 477-1111 477-1117 0-8-221-11-754-11h-753l-191-452c-105-249-194-461-197-470-7-17 52-18 1143-18h1149l329-760 329-760h613c337 0 611 3 609 8-2 4-680 1484-1507 3290l-1504 3282h-1011l-464-1028z"
       id="path6" />
    <path
       d="M40370 5110V1820h1200v5640h743c782 0 990-7 1162-41 571-110 865-447 865-994 0-532-258-858-788-995-146-38-216-43-654-47l-438-5v-885l188-6c468-15 731-117 886-344 30-45 220-453 555-1192 281-618 512-1125 514-1127s301-3 665-2l660 3-497 1065c-273 586-514 1096-535 1133-156 277-391 497-637 593-38 15-66 31-62 35s49 22 98 39c297 103 595 298 778 507 231 266 365 574 418 963 17 122 17 477 0 600-49 369-171 668-371 915-273 336-705 575-1204 665-304 56-225 53-1948 57l-1598 4V5110z"
       id="path7" />
    <path
       d="M16750 4170V1820h1210v4700h-1210V4170z"
       id="path8" />
  </g>
</svg>
